<svg version="1.1" id="Layer_1" xmlns="http://www.w3.org/2000/svg" x="0" y="0" viewBox="0 0 187 55" xml:space="preserve"><g id="Symbols"><g id="login" transform="translate(-111)"><g id="Group-7"><g id="Group" transform="translate(111)"><g id="Group-3" transform="translate(75.7 .2)"><radialGradient id="Fill-1_1_" cx="-295.8" cy="273" r="1" gradientTransform="matrix(0 34.3317 38.071 0 -10372.8 10182)" gradientUnits="userSpaceOnUse"><stop offset="0" stop-color="#0162bc"/><stop offset="1" stop-color="#093380"/></radialGradient><path id="Fill-1" d="M11.2 7.5a26 26 0 0 1 22.5-4.1c2.9.7 6.1 2.1 6.8 4.9.1 2.3-1 4.5-1.5 6.8a18.2 18.2 0 0 0-13.7-3.2c-5.2.9-8.8 4.8-10.8 8.8a19.2 19.2 0 0 0-1.2 15.2c1.1 2.7 3.5 4.9 6.6 5.8 5 1.3 10.3-.3 14.1-3.3-.7 2.9-1.1 5.8-2 8.7-.9 2.4-4 3.2-6.5 3.6-6.8 1.1-14.5-.1-19.3-4.7C1.5 41.6.4 35.3.7 29.5c.4-8.1 3.5-16.4 10.5-22" fill="url(#Fill-1_1_)"/></g><radialGradient id="Fill-4_1_" cx="53.8" cy="23.1" r="24.1" gradientTransform="matrix(.9659 0 0 .8711 6 2)" gradientUnits="userSpaceOnUse"><stop offset="0" stop-color="#0162bc"/><stop offset="1" stop-color="#1f4893"/></radialGradient><path id="Fill-4" d="M49.6 30.4c-.9 3.1-1.4 6.3-2.1 9.4-.3 1.3-1 2.8.1 4 3.6 0 7.5.2 10.6-1.6 3.8-1.9 5-7.1 1.9-9.9-2.8-2.3-6.9-1.8-10.5-1.9m4-18.3c-.7 3.3-1.5 6.5-2 9.8-.2.9 1.1 1.3 1.9 1.2 3.4.1 7.2-.3 9.7-2.5 2.3-2.1 2.5-6.2-.6-7.8-2.8-1.4-6-.8-9-.7m-9.4-6.9c5-.8 10.1-1.3 15.2-1.1 4.7.2 9.7 1.1 13.1 4.1a9.5 9.5 0 0 1 .9 13.4c-2 2.4-5 4.1-8.3 4.7 2.6.9 5.1 2.3 6.4 4.6 3 5.4 1.4 12.4-3.7 16.3a26.2 26.2 0 0 1-15 4.7c-4 .1-8.1 0-11.9-1.1-2-.5-3.6-2-4.3-3.7-1-2.6-.6-5.3 0-7.9 2.7-11.4 5-22.7 7.6-34" fill="url(#Fill-4_1_)"/><radialGradient id="Fill-6_1_" cx="136" cy="23.1" r="25.3" gradientTransform="matrix(.9659 0 0 .8711 6 2)" gradientUnits="userSpaceOnUse"><stop offset="0" stop-color="#0162bc"/><stop offset="1" stop-color="#1f4893"/></radialGradient><path id="Fill-6" d="m134.6 12.2-2.9 13.5c-.3.9.4 1.8 1.3 2.2 2.8.4 5.7 0 8.2-1.2 4.6-2.4 6.5-7.9 4.4-12.1-2.2-3.2-7.3-2.7-11-2.4m-10.3-7c3.5-1 7.3-1 11-1.2 5.1-.1 10.5.1 15 2.4a11 11 0 0 1 6 8.4 18.4 18.4 0 0 1-10.8 19.1 33 33 0 0 1-16.8 2.3l-2.5 11.1a6.1 6.1 0 0 1-4.2 4.5c-2.6.2-5.3 0-7.9.1 3.5-15.6 6.7-31.2 10.2-46.7" fill="url(#Fill-6_1_)"/><radialGradient id="Fill-8_1_" cx="-210.2" cy="283.3" r="1" gradientTransform="matrix(0 12.2122 13.5423 0 -3822.6 2584)" gradientUnits="userSpaceOnUse"><stop offset="0" stop-color="#0162bc"/><stop offset="1" stop-color="#093380"/></radialGradient><path id="Fill-8" d="M14.3 8c1.7-.8 3.9-.4 5.2.9 2 2.7 2.1 6 2 9.1-.1 2.5-.5 5-1.5 7.3-3.4-3.9-7.7-7-12.6-9.2 1.2-3.3 3.4-6.5 6.9-8.1" fill="url(#Fill-8_1_)"/><radialGradient id="Fill-8-Copy_1_" cx="-210.2" cy="283.6" r="1" gradientTransform="matrix(0 12.2122 13.5423 0 -3672.4 2584)" gradientUnits="userSpaceOnUse"><stop offset="0" stop-color="#0162bc"/><stop offset="1" stop-color="#093380"/></radialGradient><path id="Fill-8-Copy" d="M167.4 8c1.7-.8 3.9-.4 5.2.9 2 2.7 2.1 6 2 9.1-.1 2.5-.5 5-1.5 7.3-3.4-3.9-7.7-7-12.6-9.2 1.2-3.3 3.4-6.5 6.9-8.1" fill="url(#Fill-8-Copy_1_)"/><path fill="#F67D31" class="st5" d="M18.5 7.6c5 2.9 8.9 7 12.2 11.5 2.7 3.7 3 9 .4 12.8-3.2 5-7.9 8.9-12.8 12.5-2.7 1.9-6 4.2-9.6 3.3-3.4-.8-5.5-3.6-7-6.4 7.2-4 14.3-9.3 17.2-16.9 1-2.4 1.4-5 1.5-7.5.1-3.2 0-6.6-1.9-9.3"/><path fill="#F67D31" class="st5" d="M171.6 7.6c5 2.9 8.9 7 12.2 11.5 2.7 3.7 3 9 .4 12.8-3.2 5-7.9 8.9-12.8 12.5-2.7 1.9-6 4.2-9.6 3.3-3.4-.8-5.5-3.6-7-6.4 7.2-4 14.3-9.3 17.2-16.9 1-2.4 1.4-5 1.5-7.5.1-3.2 0-6.6-1.9-9.3"/></g></g></g></g></svg>
