<svg xmlns="http://www.w3.org/2000/svg" viewBox="0 0 748.5 210" xml:space="preserve"><path d="M144 114c2-5 2-10 2-16 0-16-6-28-19-38-9-6-19-10-29-12a215 215 0 0 0-91 1H5l1-2 24-37 4-3a210 210 0 0 1 53-4c20 2 38 6 56 15 8 4 16 10 22 17 5 7 8 14 9 23 0 8-2 15-7 22l-18 28-4 6h-1z" fill="#df1583"/><path d="M14 128c5-6 11-11 18-15 0 5 2 9 4 13 6 13 16 23 29 30 9 4 18 7 28 9a159 159 0 0 0 80-8l2-1c1 1 0 2-1 2l-26 41c-1 2-2 3-4 3-15 3-32 5-48 4-18-1-35-4-52-11-10-4-18-9-26-16-6-6-11-14-13-22-1-8 0-15 3-21l5-8h1z" fill="#175ea5"/><path d="m275 99 1 1c7 5 9 12 8 20l-2 10a36 36 0 0 1-34 23h-20l-1-2 2-9 2-2a499 499 0 0 0 27-1c11-5 13-14 12-22 0-4-2-7-6-8-3-2-6-2-10-2h-15c-2 0-2 0-2-2l2-9c0-2 0-2 2-2h20c11-3 16-13 14-22 0-3-2-5-5-7-4-2-9-3-14-2-10 2-17 9-19 18l-7 32-8 38c0 2 0 2-2 2h-10c-2 0-2 0-2-2l4-17 11-53c2-7 5-13 10-18 6-6 13-11 22-12 9-2 17-1 25 3 8 5 10 13 10 21l-2 6c-2 7-5 13-11 17l-2 1z" fill="#df1683"/><path d="m692 130-3-9c-1-1 0-1 1-2l10-5 25-12 2-1c-3-4-7-6-12-7a29 29 0 0 0-30 34c1 9 7 14 16 14 10 1 18-2 24-10l5-10c0-1 1-2 2-1l9 1c2 0 2 0 1 2l-3 9c-8 11-18 18-32 21-6 1-13 1-19-1-11-5-17-14-17-25a45 45 0 0 1 54-45c6 2 11 5 15 11l4 9-1 2-19 9-30 15-2 1z" fill="#195fa6"/><path d="M338 133v1l-3 13-1 2c-5 2-9 5-14 5-7 1-14 1-20-3-8-5-12-12-13-21a44 44 0 0 1 57-46c11 3 17 12 17 23l-2 13-7 31c0 2 0 2-2 2h-9c-2 0-2 0-2-2a3722 3722 0 0 1 8-44c-1-7-6-11-12-12-16-3-30 7-34 23v12c2 7 6 11 13 12 5 1 10 0 15-2l7-5 2-2zM518 155c-7 0-13-2-19-5-8-5-12-12-13-22v-7c2-8 4-15 9-21 7-8 16-14 27-17 8-2 16-1 24 3 9 5 14 12 14 23 1 12-4 21-11 30-5 6-12 11-20 14l-11 2zm-18-31v3c0 7 5 13 12 15h4c10 1 20-3 26-13 3-5 5-11 5-17 0-9-5-15-13-17-6-2-12-1-18 2-11 6-15 15-16 27z" fill="#df1783"/><path d="m635 96-3 12-2 1h-31c-2 0-2 0-2 2l-9 40c0 2 0 2-2 2h-11v-2l14-67c2-10 7-18 15-25 6-4 12-7 20-7l20-1v2l-2 10-2 1h-13l-7 1c-7 1-12 6-15 13l-4 12-1 5 1 1h34z" fill="#185ea6"/><path d="M414 153h-5c-1 0-2 0-1-1l3-18 5-23c1-4 0-8-2-11-3-4-7-6-12-6-9 1-17 7-19 17l-9 37-1 5h-11l-2-1 5-19 4-22c2-10 9-18 17-23s16-7 25-5 16 7 18 17v13l-8 38c-1 2-1 2-3 2h-4zM479 141l-2 8c-1 4-1 4-5 4h-12c-12-1-22-10-24-22-1-10 1-18 6-26a42 42 0 0 1 35-21h12c2 0 2 0 2 2l-2 9-2 1h-9c-15 0-27 11-28 25-1 9 4 20 17 20h12z" fill="#df1783"/><path d="m15 124 1-2 22-33c10-15 24-24 42-28l1 1-1 1-24 38-2 2c-14 1-24 7-34 16l-5 5z" fill="#195fa6"/><path d="m94 149 9-14a3659 3659 0 0 0 19-27c7-1 13-4 19-7l3-2v7c-2 8-5 15-10 21a67 67 0 0 1-37 22h-3z" fill="#df1683"/><path d="m664 84-2 11-12 56c0 2 0 2-2 2h-11l1-8 13-59c1-2 1-2 3-2h10z" fill="#195fa6"/><path d="M669 66c0 6-5 10-10 10-4-1-6-3-6-7 1-4 6-9 10-9s6 2 6 6z" fill="#1a5fa6"/><path d="M14 128h-1s-2 0-1-1l2-3v4z" fill="#6b98c6"/><path d="M144 114h1l-3 4 2-4z" fill="#df1783"/><path d="m15 125-1-1h1v1z" fill="#195fa6"/><path d="M175 156h1-1z" fill="#175ea5"/></svg>
