<svg id="Capa_1" data-name="Capa 1" version="1.1" width="120" height="120" xmlns="http://www.w3.org/2000/svg"><defs id="defs1"/><path d="M8.84 60.05a51.51 51.51 0 1 1 51.5 51.4 51.4 51.4 0 0 1-51.5-51.4" id="path19" stroke-width="1.2" fill="#b3975a"/><path class="cls-4" d="M60.33 111.02a51.02 51.02 0 1 1 51.2-50.97 51.14 51.14 0 0 1-51.2 51.02m53.04-51.02a53.02 53.02 0 1 0-53.04 52.86 53 53 0 0 0 53.04-52.86" id="path20" stroke-width="1.2"/><path class="cls-4" d="M60.33 111.02a51.02 51.02 0 1 1 51.2-50.97 51.14 51.14 0 0 1-51.2 51.02m53.04-51.02a53.02 53.02 0 1 0-53.04 52.86 53 53 0 0 0 53.04-52.86" id="path21" stroke-width="1.2"/><path class="cls-4" d="M22.76 60.05c0 21.17 16.87 38.39 37.57 38.39s37.6-17.27 37.6-38.39-16.85-38.39-37.6-38.39-37.57 17.2-37.57 38.39m1.43 0c0-20.32 16.23-36.91 36.14-36.91 19.92 0 36.15 16.56 36.15 36.91 0 20.35-16.2 36.92-36.15 36.92-19.94 0-36.16-16.6-36.16-36.92" id="path22" stroke-width="1.2"/><path class="cls-4" id="polygon22" transform="translate(-85.95 -82.2) scale(1.19544)" d="m85.34 108.08-.44-1.86h.02l1.67.93 1.68-1.01v.02l-.33 1.89 1.43 1.18-.01.02-1.84.25-.75 1.75-.02-.01-.86-1.69-1.92-.17v-.02z"/><path class="cls-4" id="polygon23" transform="translate(-85.95 -82.2) scale(1.19544)" d="m85.34 108.08-.44-1.86h.02l1.67.93 1.68-1.01v.02l-.33 1.89 1.43 1.18-.01.02-1.84.25-.75 1.75-.02-.01-.86-1.69-1.92-.17v-.02z"/><path class="cls-4" id="polygon24" transform="translate(-85.95 -82.2) scale(1.19544)" d="m84.39 125.8-1.21-1.44v-.01l1.92.06 1.04-1.62.57 1.8 1.79.47v.01l-1.52 1.03.1 1.93h-.02l-1.52-1.17-1.78.73h-.02z"/><path class="cls-4" id="polygon25" transform="translate(-85.95 -82.2) scale(1.19544)" d="m84.39 125.8-1.21-1.44v-.01l1.92.06 1.04-1.62.57 1.8 1.79.47v.01l-1.52 1.03.1 1.93h-.02l-1.52-1.17-1.78.73h-.02z"/><path class="cls-4" id="polygon26" transform="translate(-85.95 -82.2) scale(1.19544)" d="m91.5 142.12-1.71-.74v-.01l1.71-.81.22-1.92.01-.01 1.29 1.38 1.85-.42.01.02-.93 1.61.99 1.65h-.01l-1.93-.32-1.21 1.43h-.03z"/><path class="cls-4" id="polygon27" transform="translate(-85.95 -82.2) scale(1.19544)" d="m91.5 142.12-1.71-.74v-.01l1.71-.81.22-1.92.01-.01 1.29 1.38 1.85-.42.01.02-.93 1.61.99 1.65h-.01l-1.93-.32-1.21 1.43h-.03z"/><path class="cls-4" id="polygon28" transform="translate(-85.95 -82.2) scale(1.19544)" d="m103.37 153.59-.01-.01 1.19-1.49-.69-1.82 1.81.64 1.44-1.17-.07 1.85 1.59 1.04-1.83.57-.48 1.84h-.04l-1.03-1.55z"/><path class="cls-4" id="polygon29" transform="translate(-85.95 -82.2) scale(1.19544)" d="m103.37 153.59-.01-.01 1.19-1.49-.69-1.82 1.81.64 1.44-1.17-.07 1.85 1.59 1.04-1.83.57-.48 1.84h-.04l-1.03-1.55z"/><path class="cls-4" id="polygon30" transform="translate(-85.95 -82.2) scale(1.19544)" d="m121 158.41-.02-.02.4-1.88-1.44-1.29v-.01l1.9-.26.77-1.68h.01l.76 1.66 1.9.25-1.4 1.3.41 1.89v.02l-1.66-.95z"/><path class="cls-4" id="polygon31" transform="translate(-85.95 -82.2) scale(1.19544)" d="m121 158.41-.02-.02.4-1.88-1.44-1.29v-.01l1.9-.26.77-1.68h.01l.76 1.66 1.9.25-1.4 1.3.41 1.89v.02l-1.66-.95z"/><path class="cls-4" id="polygon32" transform="translate(-85.95 -82.2) scale(1.19544)" d="m139.96 153.26-1.01 1.56-.02-.01-.51-1.83-1.85-.53v-.01l1.57-1.04-.09-1.89h.02l1.42 1.19 1.82-.69.01.02-.67 1.82 1.21 1.46v.02z"/><path class="cls-4" id="polygon33" transform="translate(-85.95 -82.2) scale(1.19544)" d="m139.96 153.26-1.01 1.56-.02-.01-.51-1.83-1.85-.53v-.01l1.57-1.04-.09-1.89h.02l1.42 1.19 1.82-.69.01.02-.67 1.82 1.21 1.46v.02z"/><path class="cls-4" id="polygon34" transform="translate(-85.95 -82.2) scale(1.19544)" d="m153.57 141.7-.23 1.85h-.02l-1.25-1.42-1.92.37-.02-.01.97-1.65-.94-1.62.01-.01 1.83.4 1.29-1.4v.02l.27 1.89 1.71.8v.02z"/><path class="cls-4" id="polygon35" transform="translate(-85.95 -82.2) scale(1.19544)" d="m153.57 141.7-.23 1.85h-.02l-1.25-1.42-1.92.37-.02-.01.97-1.65-.94-1.62.01-.01 1.83.4 1.29-1.4v.02l.27 1.89 1.71.8v.02z"/><path class="cls-4" id="polygon36" transform="translate(-85.95 -82.2) scale(1.19544)" d="m160.45 125.3.67 1.77-.01.01-1.8-.71-1.51 1.2h-.01l.08-1.93-1.54-1.02v-.01l1.78-.47.54-1.83h.02l1.06 1.6 1.92-.08.01.03z"/><path class="cls-4" id="polygon37" transform="translate(-85.95 -82.2) scale(1.19544)" d="m159.28 107.6 1.38 1.25-.02.02-1.91.21-.84 1.71-.77-1.71-1.85-.27v-.01l1.39-1.19-.35-1.91h.02l1.66.98 1.69-.95.01.01z"/><path class="cls-4" id="polygon38" transform="translate(-85.95 -82.2) scale(1.19544)" d="m159.28 107.6 1.38 1.25-.02.02-1.91.21-.84 1.71-.77-1.71-1.85-.27v-.01l1.39-1.19-.35-1.91h.02l1.66.98 1.69-.95.01.01z"/><path class="cls-4" d="m30.78 30.63-1.54-1.48a2.3 2.3 0 0 1 1.36-.72.96.96 0 0 1 .72.3.98.98 0 0 1 .02 1.43 4.9 4.9 0 0 1-.57.53m-3.5-3.45c.64-.6 1.2-.71 1.7-.28a1.05 1.05 0 0 1 .35.72.92.92 0 0 1-.27.6s-.2.21-.35.33zm2.78.33a1.42 1.42 0 0 0-.4-1.53c-.72-.7-1.74-.54-2.7.42a6.55 6.55 0 0 0-1.26 1.59.4.4 0 0 0 .24.52l.1-.07.48-.38 3.4 3.29-.22.4a.5.5 0 0 0 0 .4.4.4 0 0 0 .23.24h.1l.1-.07.91-1 .43-.4a5.45 5.45 0 0 0 .42-.4 1.91 1.91 0 0 0 .1-2.8 1.69 1.69 0 0 0-1.93-.19" id="path38" stroke-width="1.2"/><path class="cls-4" d="m30.78 30.63-1.54-1.48a2.3 2.3 0 0 1 1.36-.72.96.96 0 0 1 .72.3.98.98 0 0 1 .02 1.43 4.9 4.9 0 0 1-.57.53m-3.5-3.45c.64-.6 1.2-.71 1.7-.28a1.05 1.05 0 0 1 .35.72.92.92 0 0 1-.27.6s-.2.21-.35.33zm2.78.33a1.42 1.42 0 0 0-.4-1.53c-.72-.7-1.74-.54-2.7.42a6.55 6.55 0 0 0-1.26 1.59.4.4 0 0 0 .24.52l.1-.07.48-.38 3.4 3.29-.22.4a.5.5 0 0 0 0 .4.4.4 0 0 0 .23.24h.1l.1-.07.91-1 .43-.4a5.45 5.45 0 0 0 .42-.4 1.91 1.91 0 0 0 .1-2.8 1.69 1.69 0 0 0-1.93-.19" id="path39" stroke-width="1.2"/><path class="cls-4" d="M41.24 22.2a1.7 1.7 0 0 1-.82.98c-1 .56-1.99.09-2.79-1.3-.8-1.39-.53-2.3.43-2.83a1.7 1.7 0 0 1 1.28-.2 2.8 2.8 0 0 1 1.5 1.43 2.63 2.63 0 0 1 .4 1.92m-3.37-4.1a3.59 3.59 0 0 0 .76 6.35 2.55 2.55 0 0 0 1.94-.3 3.25 3.25 0 0 0 1.12-4.78c-.93-1.65-2.28-2.1-3.82-1.2" id="path40" stroke-width="1.2"/><path class="cls-4" d="M41.24 22.2a1.7 1.7 0 0 1-.82.98c-1 .56-1.99.09-2.79-1.3-.8-1.39-.53-2.3.43-2.83a1.7 1.7 0 0 1 1.28-.2 2.8 2.8 0 0 1 1.5 1.43 2.63 2.63 0 0 1 .4 1.92m-3.37-4.1a3.59 3.59 0 0 0 .76 6.35 2.55 2.55 0 0 0 1.94-.3 3.25 3.25 0 0 0 1.12-4.78c-.93-1.65-2.28-2.1-3.82-1.2" id="path41" stroke-width="1.2"/><path class="cls-4" d="M53.61 17.66v-.1h-.12a.62.62 0 0 0-.44 0 .73.73 0 0 0-.26.43s0 .47-.1.7l-1.97.32-1.02-4.55.4-.11a.53.53 0 0 0 .4-.72v-.13h-.14l-1.96.43a.66.66 0 0 0-.49.32.51.51 0 0 0 0 .41l.07.1h.1l.55-.08 1.05 4.67-.36.19a.45.45 0 0 0-.25.28.55.55 0 0 0 .08.36l.06.07h.11l4.25-.94h.12v-1.65z" id="path42" stroke-width="1.2"/><path class="cls-4" d="M53.61 17.66v-.1h-.12a.62.62 0 0 0-.44 0 .73.73 0 0 0-.26.43s0 .47-.1.7l-1.97.32-1.02-4.55.4-.11a.53.53 0 0 0 .4-.72v-.13h-.14l-1.96.43a.66.66 0 0 0-.49.32.51.51 0 0 0 0 .41l.07.1h.1l.55-.08 1.05 4.67-.36.19a.45.45 0 0 0-.25.28.55.55 0 0 0 .08.36l.06.07h.11l4.25-.94h.12v-1.65z" id="path43" stroke-width="1.2"/><path class="cls-4" d="M62.32 13.28a.53.53 0 0 0 .41-.16.63.63 0 0 0 .11-.42v-.13h-2.07a.6.6 0 0 0-.53.2.4.4 0 0 0-.09.38v.11h.11l.57.08-.14 4.79-.44.08a.6.6 0 0 0-.4.23.5.5 0 0 0 0 .36v.1h1.27a7.17 7.17 0 0 1 .98 0 .87.87 0 0 0 .44-.13.53.53 0 0 0 .16-.37v-.19h-.1l-.76-.16.13-4.78z" id="path44" stroke-width="1.2"/><path class="cls-4" d="M62.32 13.28a.53.53 0 0 0 .41-.16.63.63 0 0 0 .11-.42v-.13h-2.07a.6.6 0 0 0-.53.2.4.4 0 0 0-.09.38v.11h.11l.57.08-.14 4.79-.44.08a.6.6 0 0 0-.4.23.5.5 0 0 0 0 .36v.1h1.27a7.17 7.17 0 0 1 .98 0 .87.87 0 0 0 .44-.13.53.53 0 0 0 .16-.37v-.19h-.1l-.76-.16.13-4.78z" id="path45" stroke-width="1.2"/><path class="cls-4" d="M74.08 14.62a.62.62 0 0 0-.55 0 .6.6 0 0 0-.17.34v.1h.11l.5.25-2.17 3.28-.24-3.98.32.07a.62.62 0 0 0 .75-.44v-.13l-.15-.06-1.93-.55a.65.65 0 0 0-.55.07.42.42 0 0 0-.21.36v.1h.08l.44.2.3 5.98v.13h.18a1.2 1.2 0 0 0 1.28-.6l2.8-3.92a.92.92 0 0 0 .7 0 .78.78 0 0 0 .31-.53v-.13h-.14z" id="path46" stroke-width="1.2"/><path class="cls-4" d="M74.08 14.62a.62.62 0 0 0-.55 0 .6.6 0 0 0-.17.34v.1h.11l.5.25-2.17 3.28-.24-3.98.32.07a.62.62 0 0 0 .75-.44v-.13l-.15-.06-1.93-.55a.65.65 0 0 0-.55.07.42.42 0 0 0-.21.36v.1h.08l.44.2.3 5.98v.13h.18a1.2 1.2 0 0 0 1.28-.6l2.8-3.92a.92.92 0 0 0 .7 0 .78.78 0 0 0 .31-.53v-.13h-.14z" id="path47" stroke-width="1.2"/><path class="cls-4" d="M83.16 18.69a.61.61 0 0 0-.56-.12.44.44 0 0 0-.26.3v.1l.07.06.5.36-2.55 4.08-.42-.13a.49.49 0 0 0-.46 0 .4.4 0 0 0-.19.3v.12h.1l.98.57c.33.18.64.4.86.53a.53.53 0 0 0 .44.1.5.5 0 0 0 .32-.23v-.11l-.1-.11-.57-.49 2.4-4.09.3.13a.61.61 0 0 0 .45.07.67.67 0 0 0 .3-.33v-.12l-.12-.07z" id="path48" stroke-width="1.2"/><path class="cls-4" d="M83.16 18.69a.61.61 0 0 0-.56-.12.44.44 0 0 0-.26.3v.1l.07.06.5.36-2.55 4.08-.42-.13a.49.49 0 0 0-.46 0 .4.4 0 0 0-.19.3v.12h.1l.98.57c.33.18.64.4.86.53a.53.53 0 0 0 .44.1.5.5 0 0 0 .32-.23v-.11l-.1-.11-.57-.49 2.4-4.09.3.13a.61.61 0 0 0 .45.07.67.67 0 0 0 .3-.33v-.12l-.12-.07z" id="path49" stroke-width="1.2"/><path class="cls-4" d="m90.35 28.23 1.82-.87-.95 1.78zm3.24-1.38v-.07c-.1-.14-.18-.21-.26-.32a.7.7 0 0 0-.89-.16s-4.39 1.99-5 2.25l-.37-.21a.59.59 0 0 0-.32 0 .44.44 0 0 0-.27.25v.1l.1.08c.16.14.39.39.6.6l.67.75a.54.54 0 0 0 .72.07l.13-.09-.08-.11-.45-.65 1.5-.7 1.2 1.3-.74 1.43-.47-.3a.45.45 0 0 0-.34 0 .49.49 0 0 0-.26.25v.16l.75.74c.37.38.65.7.75.81a.5.5 0 0 0 .73.09l.12-.09-.07-.1-.35-.57 2.58-5.34z" id="path50" stroke-width="1.2"/><path class="cls-4" d="m90.35 28.23 1.82-.87-.95 1.78zm3.24-1.38v-.07c-.1-.14-.18-.21-.26-.32a.7.7 0 0 0-.89-.16s-4.39 1.99-5 2.25l-.37-.21a.59.59 0 0 0-.32 0 .44.44 0 0 0-.27.25v.1l.1.08c.16.14.39.39.6.6l.67.75a.54.54 0 0 0 .72.07l.13-.09-.08-.11-.45-.65 1.5-.7 1.2 1.3-.74 1.43-.47-.3a.45.45 0 0 0-.34 0 .49.49 0 0 0-.26.25v.16l.75.74c.37.38.65.7.75.81a.5.5 0 0 0 .73.09l.12-.09-.07-.1-.35-.57 2.58-5.34z" id="path51" stroke-width="1.2"/><path class="cls-4" d="M66.88 87.55h-2.73c0-.16 0-.34.34-.41l.78-.18v-3.65h-.85c-.25 0-.37-.1-.33-.4.38-.06 1.81-.4 2.1-.52v4.55l1.2.21a.43.43 0 0 1-.48.37" id="path52" stroke-width="1.2"/><path class="cls-4" d="M66.88 87.55h-2.73c0-.16 0-.34.34-.41l.78-.18v-3.65h-.85c-.25 0-.37-.1-.33-.4.38-.06 1.81-.4 2.1-.52v4.55l1.2.21a.43.43 0 0 1-.48.37" id="path53" stroke-width="1.2"/><path class="cls-4" d="M71.64 84.84c0-.94-.31-1.85-.96-1.85-.4 0-.64.44-.64.9 0 .79.29 1.2.88 1.2a2.1 2.1 0 0 0 .72-.11zm-1.34 2.83c-.68 0-1.25-.34-1.25-.88a.4.4 0 0 1 .36-.4c.15.45.41.63 1.01.63.6 0 1.1-.45 1.2-1.63a1.85 1.85 0 0 1-1.08.27 1.39 1.39 0 0 1-1.45-1.53 1.77 1.77 0 0 1 1.75-1.71c1.08 0 1.76.79 1.76 2.39 0 1.83-.7 2.88-2.3 2.88" id="path54" stroke-width="1.2"/><path class="cls-4" d="M71.64 84.84c0-.94-.31-1.85-.96-1.85-.4 0-.64.44-.64.9 0 .79.29 1.2.88 1.2a2.1 2.1 0 0 0 .72-.11zm-1.34 2.83c-.68 0-1.25-.34-1.25-.88a.4.4 0 0 1 .36-.4c.15.45.41.63 1.01.63.6 0 1.1-.45 1.2-1.63a1.85 1.85 0 0 1-1.08.27 1.39 1.39 0 0 1-1.45-1.53 1.77 1.77 0 0 1 1.75-1.71c1.08 0 1.76.79 1.76 2.39 0 1.83-.7 2.88-2.3 2.88" id="path55" stroke-width="1.2"/><path class="cls-4" d="M76 83.12c-.49 0-.82.56-.82 1.87 0 1.5.44 1.97 1 1.97.54 0 .8-.51.8-1.87 0-1.35-.41-1.97-.98-1.97m-.12 4.53c-.9 0-1.63-.85-1.63-2.56 0-1.42.83-2.65 1.95-2.65 1.1 0 1.75.86 1.75 2.46s-.9 2.75-2.07 2.75" id="path56" stroke-width="1.2"/><path class="cls-4" d="M76 83.12c-.49 0-.82.56-.82 1.87 0 1.5.44 1.97 1 1.97.54 0 .8-.51.8-1.87 0-1.35-.41-1.97-.98-1.97m-.12 4.53c-.9 0-1.63-.85-1.63-2.56 0-1.42.83-2.65 1.95-2.65 1.1 0 1.75.86 1.75 2.46s-.9 2.75-2.07 2.75" id="path57" stroke-width="1.2"/><path class="cls-4" d="M82.06 83.4a5.82 5.82 0 0 1-1.19-.13v1.07c1.42-.1 2.2.56 2.2 1.52a1.86 1.86 0 0 1-2.08 1.8c-.78 0-1.32-.38-1.32-1.05a.43.43 0 0 1 .39-.38 1.09 1.09 0 0 0 1.04.84.88.88 0 0 0 .95-.98c0-.91-.79-1.28-1.97-1.08l.17-2.39a18.13 18.13 0 0 0 2.72 0c.18.44-.07.88-.82.88" id="path58" stroke-width="1.2"/><path class="cls-4" d="M82.06 83.4a5.82 5.82 0 0 1-1.19-.13v1.07c1.42-.1 2.2.56 2.2 1.52a1.86 1.86 0 0 1-2.08 1.8c-.78 0-1.32-.38-1.32-1.05a.43.43 0 0 1 .39-.38 1.09 1.09 0 0 0 1.04.84.88.88 0 0 0 .95-.98c0-.91-.79-1.28-1.97-1.08l.17-2.39a18.13 18.13 0 0 0 2.72 0c.18.44-.07.88-.82.88" id="path59" stroke-width="1.2"/><path class="cls-4" d="M52.76 70.04a14.97 14.97 0 0 0 1.12 7.4c.32.76-.41.52-.41.52-1.8-.5-3.06-2.4-3.73-4.38a14.18 14.18 0 0 1-.57-4.55 48.86 48.86 0 0 1 1.05-7.53A134 134 0 0 1 55 46.84c.14-.37 0-.47-.18-.4a1.09 1.09 0 0 0-.3.32A439.04 439.04 0 0 0 43.4 63.89c-.56.81-.8 0-.8 0 .09-3.59.58-16.98.58-16.98 0-.33 0-.43-.11-.45-.11-.03-.33.33-.33.33-.17.36-4.06 11.08-6.69 17.93a62.84 62.84 0 0 1-2.96 6.85 3.75 3.75 0 0 1-2.32 1.6 5.4 5.4 0 0 1-2.53.26c-.67-.12-.22-.65-.22-.65 2.26-1.5 5.34-6.53 7.83-11.95a176.67 176.67 0 0 0 6.72-17.48 2.4 2.4 0 0 0 .13-1.52.68.68 0 0 0-.62-.36c-4.68 0-7.37 5.38-7.37 5.38a7.75 7.75 0 0 0-.4 6.83c.2.54-.33.37-.33.37-4.05-1.55-2.52-6.4-2.52-6.4s1.83-8.45 15.86-7.42a.3.3 0 0 1 .24.35s-.74 12.03-.75 14.75c0 0 .13.76.5.1 0 0 6.91-10.31 10.19-14.82a.55.55 0 0 1 .52-.3s2.55-.08 5.16 0c0 0 .38 0 .34.3-.03.28 0 .23-.3.39 0 0-1.06.32-2.39 2.39a17.5 17.5 0 0 0-1.62 3.32 155.73 155.73 0 0 0-5.4 16.57 39.8 39.8 0 0 0-.98 6.96" id="path60" stroke-width="1.2"/><path class="cls-4" d="M52.76 70.04a14.97 14.97 0 0 0 1.12 7.4c.32.76-.41.52-.41.52-1.8-.5-3.06-2.4-3.73-4.38a14.18 14.18 0 0 1-.57-4.55 48.86 48.86 0 0 1 1.05-7.53A134 134 0 0 1 55 46.84c.14-.37 0-.47-.18-.4a1.09 1.09 0 0 0-.3.32A439.04 439.04 0 0 0 43.4 63.89c-.56.81-.8 0-.8 0 .09-3.59.58-16.98.58-16.98 0-.33 0-.43-.11-.45-.11-.03-.33.33-.33.33-.17.36-4.06 11.08-6.69 17.93a62.84 62.84 0 0 1-2.96 6.85 3.75 3.75 0 0 1-2.32 1.6 5.4 5.4 0 0 1-2.53.26c-.67-.12-.22-.65-.22-.65 2.26-1.5 5.34-6.53 7.83-11.95a176.67 176.67 0 0 0 6.72-17.48 2.4 2.4 0 0 0 .13-1.52.68.68 0 0 0-.62-.36c-4.68 0-7.37 5.38-7.37 5.38a7.75 7.75 0 0 0-.4 6.83c.2.54-.33.37-.33.37-4.05-1.55-2.52-6.4-2.52-6.4s1.83-8.45 15.86-7.42a.3.3 0 0 1 .24.35s-.74 12.03-.75 14.75c0 0 .13.76.5.1 0 0 6.91-10.31 10.19-14.82a.55.55 0 0 1 .52-.3s2.55-.08 5.16 0c0 0 .38 0 .34.3-.03.28 0 .23-.3.39 0 0-1.06.32-2.39 2.39a17.5 17.5 0 0 0-1.62 3.32 155.73 155.73 0 0 0-5.4 16.57 39.8 39.8 0 0 0-.98 6.96" id="path61" stroke-width="1.2"/><path class="cls-4" d="M43.87 73.85a9.15 9.15 0 0 1 9.56-8.52 8.18 8.18 0 0 1 3.8.83 4.69 4.69 0 0 1 2.48 2.8 5.16 5.16 0 0 1 0 2.91 4.04 4.04 0 0 1-2.63 2.6c-.82.28-.26-.46-.26-.46a7.53 7.53 0 0 0 .7-3c0-3.74-2.85-4.36-2.85-4.36a7.02 7.02 0 0 0-3.97.21c-3.78 1.34-4.06 5.98-4.06 5.98a7.58 7.58 0 0 0 4.46 8.37c6.11 2.28 10.99-2.28 10.99-2.28a8.76 8.76 0 0 0 2.52-8.91c-.56-2.14-3.58-6.9-3.58-6.9a17.02 17.02 0 0 1-2.66-5.2 8.68 8.68 0 0 1 .46-5.65c.94-2.17 3.14-4.78 7.85-5.52 0 0 3.85-.61 6.34.52a.38.38 0 0 1 .13.44 41.3 41.3 0 0 0-1.93 4.37.68.68 0 0 1-.3.34.38.38 0 0 1-.57-.41s.5-4.57-3.5-4.03a5.62 5.62 0 0 0-4.52 3.33 6.87 6.87 0 0 0-.15 4.96 24.17 24.17 0 0 0 2.81 5.1s3.67 5.23 3.9 8.18c0 0 1.33 7.77-7.5 12.03 0 0-7.02 3.42-13.31-.07A7.73 7.73 0 0 1 44 73.88" id="path62" stroke-width="1.2"/><path class="cls-4" d="M43.87 73.85a9.15 9.15 0 0 1 9.56-8.52 8.18 8.18 0 0 1 3.8.83 4.69 4.69 0 0 1 2.48 2.8 5.16 5.16 0 0 1 0 2.91 4.04 4.04 0 0 1-2.63 2.6c-.82.28-.26-.46-.26-.46a7.53 7.53 0 0 0 .7-3c0-3.74-2.85-4.36-2.85-4.36a7.02 7.02 0 0 0-3.97.21c-3.78 1.34-4.06 5.98-4.06 5.98a7.58 7.58 0 0 0 4.46 8.37c6.11 2.28 10.99-2.28 10.99-2.28a8.76 8.76 0 0 0 2.52-8.91c-.56-2.14-3.58-6.9-3.58-6.9a17.02 17.02 0 0 1-2.66-5.2 8.68 8.68 0 0 1 .46-5.65c.94-2.17 3.14-4.78 7.85-5.52 0 0 3.85-.61 6.34.52a.38.38 0 0 1 .13.44 41.3 41.3 0 0 0-1.93 4.37.68.68 0 0 1-.3.34.38.38 0 0 1-.57-.41s.5-4.57-3.5-4.03a5.62 5.62 0 0 0-4.52 3.33 6.87 6.87 0 0 0-.15 4.96 24.17 24.17 0 0 0 2.81 5.1s3.67 5.23 3.9 8.18c0 0 1.33 7.77-7.5 12.03 0 0-7.02 3.42-13.31-.07A7.73 7.73 0 0 1 44 73.88" id="path63" stroke-width="1.2"/><path class="cls-4" d="M76.77 73.2c-4.78.08-6.54-3.02-7-6.59-.68-5.15 1.87-11.88 1.87-11.88S75.8 39.3 86.32 40.01a11.95 11.95 0 0 1 4.2 1.2.49.49 0 0 1 .2.53s-2.26 5.06-2.4 7.05c0 0-.1.35-.54.2a3.16 3.16 0 0 1-1.88-4.17c.2-.57.42-1.06.67-1.78a3.26 3.26 0 0 0 .34-1.33.42.42 0 0 0-.18-.32 3.35 3.35 0 0 0-1.3-.16 4.78 4.78 0 0 0-2.3.82c-4.3 2.97-7.75 14.8-7.75 14.8s-4.84 14.66 1.2 15.14c0 0 3.84.9 6.78-5.2a27.03 27.03 0 0 0 2.5-8s0-.41.27-.47.36.1.5.56a10.46 10.46 0 0 1-.95 9.06 9.89 9.89 0 0 1-8.91 5.26" id="path64" stroke-width="1.2"/><path class="cls-4" d="M76.77 73.2c-4.78.08-6.54-3.02-7-6.59-.68-5.15 1.87-11.88 1.87-11.88S75.8 39.3 86.32 40.01a11.95 11.95 0 0 1 4.2 1.2.49.49 0 0 1 .2.53s-2.26 5.06-2.4 7.05c0 0-.1.35-.54.2a3.16 3.16 0 0 1-1.88-4.17c.2-.57.42-1.06.67-1.78a3.26 3.26 0 0 0 .34-1.33.42.42 0 0 0-.18-.32 3.35 3.35 0 0 0-1.3-.16 4.78 4.78 0 0 0-2.3.82c-4.3 2.97-7.75 14.8-7.75 14.8s-4.84 14.66 1.2 15.14c0 0 3.84.9 6.78-5.2a27.03 27.03 0 0 0 2.5-8s0-.41.27-.47.36.1.5.56a10.46 10.46 0 0 1-.95 9.06 9.89 9.89 0 0 1-8.91 5.26" id="path65" stroke-width="1.2"/></svg>
